<mxfile host="app.diagrams.net" modified="2024-05-29T06:46:19.417Z" agent="Mozilla/5.0 (Windows NT 10.0; Win64; x64) AppleWebKit/537.36 (KHTML, like Gecko) Chrome/125.0.0.0 Safari/537.36" etag="PJ8ptGFxwjX7LgkQlY4D" version="24.4.9" type="device">
  <diagram name="Page-1" id="c7488fd3-1785-93aa-aadb-54a6760d102a">
    <mxGraphModel dx="1434" dy="746" grid="1" gridSize="10" guides="1" tooltips="1" connect="1" arrows="1" fold="1" page="1" pageScale="1" pageWidth="1100" pageHeight="850" background="none" math="0" shadow="0">
      <root>
        <mxCell id="0" />
        <mxCell id="1" parent="0" />
        <mxCell id="Yo0cW9FGrUJGptlSPzKA-4" style="edgeStyle=orthogonalEdgeStyle;rounded=0;orthogonalLoop=1;jettySize=auto;html=1;exitX=0;exitY=0.5;exitDx=0;exitDy=0;entryX=0;entryY=0.5;entryDx=0;entryDy=0;" edge="1" parent="1" source="Yo0cW9FGrUJGptlSPzKA-1" target="Yo0cW9FGrUJGptlSPzKA-2">
          <mxGeometry relative="1" as="geometry">
            <Array as="points">
              <mxPoint x="200" y="150" />
              <mxPoint x="200" y="250" />
            </Array>
          </mxGeometry>
        </mxCell>
        <mxCell id="Yo0cW9FGrUJGptlSPzKA-1" value="Traffic Collect" style="rounded=1;whiteSpace=wrap;html=1;" vertex="1" parent="1">
          <mxGeometry x="220" y="120" width="120" height="60" as="geometry" />
        </mxCell>
        <mxCell id="Yo0cW9FGrUJGptlSPzKA-5" style="edgeStyle=orthogonalEdgeStyle;rounded=0;orthogonalLoop=1;jettySize=auto;html=1;exitX=1;exitY=0.5;exitDx=0;exitDy=0;entryX=1;entryY=0.5;entryDx=0;entryDy=0;" edge="1" parent="1" source="Yo0cW9FGrUJGptlSPzKA-2" target="Yo0cW9FGrUJGptlSPzKA-1">
          <mxGeometry relative="1" as="geometry" />
        </mxCell>
        <mxCell id="Yo0cW9FGrUJGptlSPzKA-7" style="edgeStyle=orthogonalEdgeStyle;rounded=0;orthogonalLoop=1;jettySize=auto;html=1;exitX=1;exitY=0.5;exitDx=0;exitDy=0;entryX=0;entryY=0.5;entryDx=0;entryDy=0;" edge="1" parent="1" source="Yo0cW9FGrUJGptlSPzKA-2" target="Yo0cW9FGrUJGptlSPzKA-6">
          <mxGeometry relative="1" as="geometry" />
        </mxCell>
        <mxCell id="Yo0cW9FGrUJGptlSPzKA-16" style="edgeStyle=orthogonalEdgeStyle;rounded=0;orthogonalLoop=1;jettySize=auto;html=1;exitX=0.5;exitY=1;exitDx=0;exitDy=0;entryX=0.5;entryY=0;entryDx=0;entryDy=0;" edge="1" parent="1" source="Yo0cW9FGrUJGptlSPzKA-2" target="Yo0cW9FGrUJGptlSPzKA-15">
          <mxGeometry relative="1" as="geometry" />
        </mxCell>
        <mxCell id="Yo0cW9FGrUJGptlSPzKA-2" value="Data Save" style="rounded=1;whiteSpace=wrap;html=1;" vertex="1" parent="1">
          <mxGeometry x="220" y="220" width="120" height="60" as="geometry" />
        </mxCell>
        <mxCell id="Yo0cW9FGrUJGptlSPzKA-11" style="edgeStyle=orthogonalEdgeStyle;rounded=0;orthogonalLoop=1;jettySize=auto;html=1;exitX=0.5;exitY=1;exitDx=0;exitDy=0;entryX=0.5;entryY=0;entryDx=0;entryDy=0;" edge="1" parent="1" source="Yo0cW9FGrUJGptlSPzKA-6" target="Yo0cW9FGrUJGptlSPzKA-8">
          <mxGeometry relative="1" as="geometry" />
        </mxCell>
        <mxCell id="Yo0cW9FGrUJGptlSPzKA-6" value="Data Pre-process" style="rounded=1;whiteSpace=wrap;html=1;" vertex="1" parent="1">
          <mxGeometry x="380" y="220" width="120" height="60" as="geometry" />
        </mxCell>
        <mxCell id="Yo0cW9FGrUJGptlSPzKA-12" style="edgeStyle=orthogonalEdgeStyle;rounded=0;orthogonalLoop=1;jettySize=auto;html=1;exitX=0.5;exitY=1;exitDx=0;exitDy=0;entryX=0.5;entryY=0;entryDx=0;entryDy=0;" edge="1" parent="1" source="Yo0cW9FGrUJGptlSPzKA-8" target="Yo0cW9FGrUJGptlSPzKA-9">
          <mxGeometry relative="1" as="geometry" />
        </mxCell>
        <mxCell id="Yo0cW9FGrUJGptlSPzKA-8" value="AI Model" style="rounded=1;whiteSpace=wrap;html=1;" vertex="1" parent="1">
          <mxGeometry x="380" y="320" width="120" height="60" as="geometry" />
        </mxCell>
        <mxCell id="Yo0cW9FGrUJGptlSPzKA-14" style="edgeStyle=orthogonalEdgeStyle;rounded=0;orthogonalLoop=1;jettySize=auto;html=1;exitX=0.5;exitY=1;exitDx=0;exitDy=0;entryX=0.5;entryY=0;entryDx=0;entryDy=0;" edge="1" parent="1" source="Yo0cW9FGrUJGptlSPzKA-9" target="Yo0cW9FGrUJGptlSPzKA-13">
          <mxGeometry relative="1" as="geometry" />
        </mxCell>
        <mxCell id="Yo0cW9FGrUJGptlSPzKA-17" style="edgeStyle=orthogonalEdgeStyle;rounded=0;orthogonalLoop=1;jettySize=auto;html=1;exitX=0;exitY=0.5;exitDx=0;exitDy=0;entryX=0.5;entryY=1;entryDx=0;entryDy=0;" edge="1" parent="1" source="Yo0cW9FGrUJGptlSPzKA-9" target="Yo0cW9FGrUJGptlSPzKA-15">
          <mxGeometry relative="1" as="geometry" />
        </mxCell>
        <mxCell id="Yo0cW9FGrUJGptlSPzKA-9" value="Prediction Result" style="rounded=1;whiteSpace=wrap;html=1;" vertex="1" parent="1">
          <mxGeometry x="380" y="420" width="120" height="60" as="geometry" />
        </mxCell>
        <mxCell id="Yo0cW9FGrUJGptlSPzKA-13" value="Alert User" style="rounded=1;whiteSpace=wrap;html=1;" vertex="1" parent="1">
          <mxGeometry x="380" y="520" width="120" height="60" as="geometry" />
        </mxCell>
        <mxCell id="Yo0cW9FGrUJGptlSPzKA-19" style="edgeStyle=orthogonalEdgeStyle;rounded=0;orthogonalLoop=1;jettySize=auto;html=1;exitX=1;exitY=0.5;exitDx=0;exitDy=0;entryX=0;entryY=0.5;entryDx=0;entryDy=0;" edge="1" parent="1" source="Yo0cW9FGrUJGptlSPzKA-15" target="Yo0cW9FGrUJGptlSPzKA-18">
          <mxGeometry relative="1" as="geometry" />
        </mxCell>
        <mxCell id="Yo0cW9FGrUJGptlSPzKA-15" value="Combine by administrator" style="rounded=1;whiteSpace=wrap;html=1;" vertex="1" parent="1">
          <mxGeometry x="40" y="320" width="120" height="60" as="geometry" />
        </mxCell>
        <mxCell id="Yo0cW9FGrUJGptlSPzKA-20" style="edgeStyle=orthogonalEdgeStyle;rounded=0;orthogonalLoop=1;jettySize=auto;html=1;exitX=1;exitY=0.5;exitDx=0;exitDy=0;entryX=0;entryY=0.5;entryDx=0;entryDy=0;" edge="1" parent="1" source="Yo0cW9FGrUJGptlSPzKA-18" target="Yo0cW9FGrUJGptlSPzKA-8">
          <mxGeometry relative="1" as="geometry" />
        </mxCell>
        <mxCell id="Yo0cW9FGrUJGptlSPzKA-18" value="Model Update" style="rounded=1;whiteSpace=wrap;html=1;" vertex="1" parent="1">
          <mxGeometry x="220" y="320" width="120" height="60" as="geometry" />
        </mxCell>
      </root>
    </mxGraphModel>
  </diagram>
</mxfile>
